# xmcd
#
# Track frame offsets: 
#        150
#        18615
#        35260
#        49272
#        69930
#        86585
#        97992
#        121472
#        138857
#        154895
#        179427
#
# Disc length: 2577 seconds
#
# Revision: 0
# Processed by: cddbd v1.4PL0 Copyright (c) Steve Scherf et al.
# Submitted via: ExactAudioCopy v0.90b4
#
DISCID=8c0a0f0b
DTITLE=Chris LeDoux - The Capitol Collection (1990-2000) - Disc 5 (Sta
DTITLE=mpede)
DYEAR=1900
DGENRE=Country
TTITLE0=Gravitational Pull
TTITLE1=Five Dollar Fine
TTITLE2=Now That's All Right With Me
TTITLE3=Take Me To The Rodeo
TTITLE4=Fathers And Sons
TTITLE5=I'll Get The Job Done
TTITLE6=Stampede
TTITLE7=When I Say Forever
TTITLE8=Calico Moon
TTITLE9=That's What Loving You Means To Me
TTITLE10=Rainbow Rider (Bonus Track)
EXTD=
EXTT0=
EXTT1=
EXTT2=
EXTT3=
EXTT4=
EXTT5=
EXTT6=
EXTT7=
EXTT8=
EXTT9=
EXTT10=
PLAYORDER=
